<mxfile host="app.diagrams.net" modified="2020-07-19T15:32:27.929Z" agent="5.0 (Macintosh; Intel Mac OS X 10_11_6) AppleWebKit/537.36 (KHTML, like Gecko) Chrome/83.0.4103.116 Safari/537.36" etag="gEs2LHkY9ARncay3DXwc" version="13.4.4" type="github">
  <diagram id="8qlgNCJZel72x5GJVPV0" name="Page-1">
    <mxGraphModel dx="1186" dy="511" grid="1" gridSize="10" guides="1" tooltips="1" connect="1" arrows="1" fold="1" page="1" pageScale="1" pageWidth="827" pageHeight="1169" math="0" shadow="0">
      <root>
        <mxCell id="0" />
        <mxCell id="1" parent="0" />
        <mxCell id="Us8akTgwSVRLfupjCOX2-1" value="用户设备" style="rounded=0;whiteSpace=wrap;html=1;" vertex="1" parent="1">
          <mxGeometry x="80" y="400" width="120" height="60" as="geometry" />
        </mxCell>
        <mxCell id="Us8akTgwSVRLfupjCOX2-2" value="用户ip" style="rounded=0;whiteSpace=wrap;html=1;" vertex="1" parent="1">
          <mxGeometry x="250" y="400" width="120" height="60" as="geometry" />
        </mxCell>
        <mxCell id="Us8akTgwSVRLfupjCOX2-3" value="用户区域" style="rounded=0;whiteSpace=wrap;html=1;" vertex="1" parent="1">
          <mxGeometry x="420" y="400" width="120" height="60" as="geometry" />
        </mxCell>
        <mxCell id="Us8akTgwSVRLfupjCOX2-4" value="黑白名单" style="rounded=0;whiteSpace=wrap;html=1;" vertex="1" parent="1">
          <mxGeometry x="600" y="400" width="120" height="60" as="geometry" />
        </mxCell>
        <mxCell id="Us8akTgwSVRLfupjCOX2-5" value="内容审核平台" style="rounded=0;whiteSpace=wrap;html=1;" vertex="1" parent="1">
          <mxGeometry x="279" y="70" width="120" height="60" as="geometry" />
        </mxCell>
        <mxCell id="Us8akTgwSVRLfupjCOX2-12" style="edgeStyle=orthogonalEdgeStyle;rounded=0;orthogonalLoop=1;jettySize=auto;html=1;" edge="1" parent="1" source="Us8akTgwSVRLfupjCOX2-6" target="Us8akTgwSVRLfupjCOX2-5">
          <mxGeometry relative="1" as="geometry" />
        </mxCell>
        <mxCell id="Us8akTgwSVRLfupjCOX2-6" value="审核人员" style="shape=umlActor;verticalLabelPosition=bottom;verticalAlign=top;html=1;outlineConnect=0;" vertex="1" parent="1">
          <mxGeometry x="519" y="70" width="30" height="60" as="geometry" />
        </mxCell>
        <mxCell id="Us8akTgwSVRLfupjCOX2-7" value="机器审核" style="rounded=0;whiteSpace=wrap;html=1;" vertex="1" parent="1">
          <mxGeometry x="279" y="160" width="120" height="60" as="geometry" />
        </mxCell>
        <mxCell id="Us8akTgwSVRLfupjCOX2-13" style="edgeStyle=orthogonalEdgeStyle;rounded=0;orthogonalLoop=1;jettySize=auto;html=1;" edge="1" parent="1" source="Us8akTgwSVRLfupjCOX2-8" target="Us8akTgwSVRLfupjCOX2-10">
          <mxGeometry relative="1" as="geometry" />
        </mxCell>
        <mxCell id="Us8akTgwSVRLfupjCOX2-14" style="edgeStyle=orthogonalEdgeStyle;rounded=0;orthogonalLoop=1;jettySize=auto;html=1;" edge="1" parent="1" source="Us8akTgwSVRLfupjCOX2-8" target="Us8akTgwSVRLfupjCOX2-11">
          <mxGeometry relative="1" as="geometry" />
        </mxCell>
        <mxCell id="Us8akTgwSVRLfupjCOX2-8" value="人工审核" style="rounded=0;whiteSpace=wrap;html=1;" vertex="1" parent="1">
          <mxGeometry x="279" y="240" width="120" height="60" as="geometry" />
        </mxCell>
        <mxCell id="Us8akTgwSVRLfupjCOX2-9" value="人工复审" style="rounded=0;whiteSpace=wrap;html=1;" vertex="1" parent="1">
          <mxGeometry x="279" y="310" width="120" height="60" as="geometry" />
        </mxCell>
        <mxCell id="Us8akTgwSVRLfupjCOX2-10" value="违规信息处理&lt;span style=&quot;color: rgba(0 , 0 , 0 , 0) ; font-family: monospace ; font-size: 0px&quot;&gt;%3CmxGraphModel%3E%3Croot%3E%3CmxCell%20id%3D%220%22%2F%3E%3CmxCell%20id%3D%221%22%20parent%3D%220%22%2F%3E%3CmxCell%20id%3D%222%22%20value%3D%22%E4%BA%BA%E5%B7%A5%E5%AE%A1%E6%A0%B8%22%20style%3D%22rounded%3D0%3BwhiteSpace%3Dwrap%3Bhtml%3D1%3B%22%20vertex%3D%221%22%20parent%3D%221%22%3E%3CmxGeometry%20x%3D%22279%22%20y%3D%22240%22%20width%3D%22120%22%20height%3D%2260%22%20as%3D%22geometry%22%2F%3E%3C%2FmxCell%3E%3C%2Froot%3E%3C%2FmxGraphModel%3E&lt;/span&gt;" style="rounded=0;whiteSpace=wrap;html=1;" vertex="1" parent="1">
          <mxGeometry x="440" y="240" width="120" height="60" as="geometry" />
        </mxCell>
        <mxCell id="Us8akTgwSVRLfupjCOX2-11" value="正常信息通过" style="rounded=0;whiteSpace=wrap;html=1;" vertex="1" parent="1">
          <mxGeometry x="100" y="240" width="120" height="60" as="geometry" />
        </mxCell>
        <mxCell id="Us8akTgwSVRLfupjCOX2-15" value="内容处理" style="rounded=0;whiteSpace=wrap;html=1;" vertex="1" parent="1">
          <mxGeometry x="590" y="240" width="120" height="30" as="geometry" />
        </mxCell>
        <mxCell id="Us8akTgwSVRLfupjCOX2-16" value="用户处理" style="rounded=0;whiteSpace=wrap;html=1;" vertex="1" parent="1">
          <mxGeometry x="590" y="280" width="120" height="30" as="geometry" />
        </mxCell>
      </root>
    </mxGraphModel>
  </diagram>
</mxfile>
